<svg width="66" height="66" viewBox="0 0 66 66" fill="none" xmlns="http://www.w3.org/2000/svg">
<path d="M14.85 26.125C16.6375 26.125 18.3333 26.4458 19.9375 27.0875C21.5417 27.7292 23.0083 28.6687 24.3375 29.9062L50.6 55H52.25C53.0292 55 53.6823 54.7365 54.2094 54.2094C54.7365 53.6823 55 53.0292 55 52.25C55 51.8833 54.9656 51.4937 54.8969 51.0812C54.8281 50.6688 54.5875 50.2562 54.175 49.8438L41.5938 37.2625L36.7125 22.55L31.625 23.7875C29.8833 24.2458 28.3021 23.925 26.8813 22.825C25.4604 21.725 24.75 20.2812 24.75 18.4937V12.7187L22.825 11.7562L12.2375 25.9187C12.1917 25.9646 12.1688 25.999 12.1688 26.0219C12.1688 26.0448 12.1458 26.0792 12.1 26.125H14.85ZM14.85 31.625H11.6875C11.825 31.9458 11.9969 32.2437 12.2031 32.5187C12.4094 32.7937 12.65 33.0458 12.925 33.275L35.2 53.5562C35.7042 54.0604 36.2771 54.4271 36.9188 54.6562C37.5604 54.8854 38.225 55 38.9125 55H42.625L20.5563 33.8937C19.7771 33.1146 18.8948 32.5417 17.9094 32.175C16.924 31.8083 15.9042 31.625 14.85 31.625ZM38.9125 60.5C37.5375 60.5 36.2313 60.2479 34.9938 59.7437C33.7563 59.2396 32.6104 58.5292 31.5563 57.6125L9.21251 37.3312C7.10418 35.4062 5.92397 33.0458 5.67189 30.25C5.41981 27.4542 6.14168 24.9104 7.83751 22.6187L18.425 8.45625C19.2042 7.40208 20.2469 6.70312 21.5531 6.35937C22.8594 6.01562 24.1083 6.16458 25.3 6.80625L27.225 7.76875C28.1875 8.27292 28.9323 8.96042 29.4594 9.83125C29.9865 10.7021 30.25 11.6646 30.25 12.7187V18.4937L35.3375 17.1875C36.7125 16.8208 38.0417 16.9927 39.325 17.7031C40.6083 18.4135 41.4792 19.4333 41.9375 20.7625L46.4063 34.2375L58.0938 45.925C59.0104 46.8417 59.6406 47.8271 59.9844 48.8812C60.3281 49.9354 60.5 51.0583 60.5 52.25C60.5 54.5417 59.6979 56.4896 58.0938 58.0938C56.4896 59.6979 54.5417 60.5 52.25 60.5H38.9125Z" fill="#FEFEFF"/>
</svg>
