<svg width="45" height="45" viewBox="0 0 45 45" fill="none" xmlns="http://www.w3.org/2000/svg">
<path d="M18.75 22.5C16.6875 22.5 14.9219 21.7656 13.4531 20.2969C11.9844 18.8281 11.25 17.0625 11.25 15C11.25 12.9375 11.9844 11.1719 13.4531 9.70312C14.9219 8.23438 16.6875 7.5 18.75 7.5C20.8125 7.5 22.5781 8.23438 24.0469 9.70312C25.5156 11.1719 26.25 12.9375 26.25 15C26.25 17.0625 25.5156 18.8281 24.0469 20.2969C22.5781 21.7656 20.8125 22.5 18.75 22.5ZM3.75 37.5V32.25C3.75 31.2188 4.01562 30.25 4.54688 29.3438C5.07812 28.4375 5.8125 27.75 6.75 27.2812C8.34375 26.4688 10.1406 25.7812 12.1406 25.2188C14.1406 24.6562 16.3438 24.375 18.75 24.375H19.4062C19.5938 24.375 19.7812 24.4062 19.9688 24.4688C19.7188 25.0312 19.5078 25.6172 19.3359 26.2266C19.1641 26.8359 19.0312 27.4688 18.9375 28.125H18.75C16.5312 28.125 14.5391 28.4062 12.7734 28.9688C11.0078 29.5312 9.5625 30.0938 8.4375 30.6562C8.15625 30.8125 7.92969 31.0312 7.75781 31.3125C7.58594 31.5938 7.5 31.9062 7.5 32.25V33.75H19.3125C19.5 34.4062 19.75 35.0547 20.0625 35.6953C20.375 36.3359 20.7188 36.9375 21.0938 37.5H3.75ZM30 39.375L29.4375 36.5625C29.0625 36.4062 28.7109 36.2422 28.3828 36.0703C28.0547 35.8984 27.7188 35.6875 27.375 35.4375L24.6562 36.2812L22.7812 33.0938L24.9375 31.2188C24.875 30.7812 24.8438 30.375 24.8438 30C24.8438 29.625 24.875 29.2188 24.9375 28.7812L22.7812 26.9062L24.6562 23.7188L27.375 24.5625C27.7188 24.3125 28.0547 24.1016 28.3828 23.9297C28.7109 23.7578 29.0625 23.5938 29.4375 23.4375L30 20.625H33.75L34.3125 23.4375C34.6875 23.5938 35.0391 23.7656 35.3672 23.9531C35.6953 24.1406 36.0312 24.375 36.375 24.6562L39.0938 23.7188L40.9688 27L38.8125 28.875C38.875 29.25 38.9062 29.6406 38.9062 30.0469C38.9062 30.4531 38.875 30.8438 38.8125 31.2188L40.9688 33.0938L39.0938 36.2812L36.375 35.4375C36.0312 35.6875 35.6953 35.8984 35.3672 36.0703C35.0391 36.2422 34.6875 36.4062 34.3125 36.5625L33.75 39.375H30ZM31.875 33.75C32.9062 33.75 33.7891 33.3828 34.5234 32.6484C35.2578 31.9141 35.625 31.0312 35.625 30C35.625 28.9688 35.2578 28.0859 34.5234 27.3516C33.7891 26.6172 32.9062 26.25 31.875 26.25C30.8438 26.25 29.9609 26.6172 29.2266 27.3516C28.4922 28.0859 28.125 28.9688 28.125 30C28.125 31.0312 28.4922 31.9141 29.2266 32.6484C29.9609 33.3828 30.8438 33.75 31.875 33.75ZM18.75 18.75C19.7812 18.75 20.6641 18.3828 21.3984 17.6484C22.1328 16.9141 22.5 16.0312 22.5 15C22.5 13.9688 22.1328 13.0859 21.3984 12.3516C20.6641 11.6172 19.7812 11.25 18.75 11.25C17.7188 11.25 16.8359 11.6172 16.1016 12.3516C15.3672 13.0859 15 13.9688 15 15C15 16.0312 15.3672 16.9141 16.1016 17.6484C16.8359 18.3828 17.7188 18.75 18.75 18.75Z" fill="#E8EAED"/>
</svg>
