<svg width="70" height="70" viewBox="0 0 70 70" fill="none" xmlns="http://www.w3.org/2000/svg">
<path d="M20.4166 55.4166V49.5833H41.125C44.1875 49.5833 46.8489 48.6111 49.1093 46.6666C51.3698 44.7222 52.5 42.2916 52.5 39.375C52.5 36.4583 51.3698 34.0277 49.1093 32.0833C46.8489 30.1388 44.1875 29.1666 41.125 29.1666H22.75L30.3333 36.75L26.25 40.8333L11.6666 26.25L26.25 11.6666L30.3333 15.75L22.75 23.3333H41.125C45.8402 23.3333 49.8871 24.8645 53.2656 27.927C56.6441 30.9895 58.3333 34.8055 58.3333 39.375C58.3333 43.9444 56.6441 47.7604 53.2656 50.8229C49.8871 53.8854 45.8402 55.4166 41.125 55.4166H20.4166Z" fill="black"/>
</svg>
