<svg width="35" height="35" viewBox="0 0 35 35" fill="none" xmlns="http://www.w3.org/2000/svg">
<path d="M16.0416 13.125V8.74998H11.6666V5.83331H16.0416V1.45831H18.9583V5.83331H23.3333V8.74998H18.9583V13.125H16.0416ZM10.2083 32.0833C9.40617 32.0833 8.71954 31.7977 8.14836 31.2265C7.57718 30.6554 7.29159 29.9687 7.29159 29.1666C7.29159 28.3646 7.57718 27.6779 8.14836 27.1068C8.71954 26.5356 9.40617 26.25 10.2083 26.25C11.0103 26.25 11.697 26.5356 12.2681 27.1068C12.8393 27.6779 13.1249 28.3646 13.1249 29.1666C13.1249 29.9687 12.8393 30.6554 12.2681 31.2265C11.697 31.7977 11.0103 32.0833 10.2083 32.0833ZM24.7916 32.0833C23.9895 32.0833 23.3029 31.7977 22.7317 31.2265C22.1605 30.6554 21.8749 29.9687 21.8749 29.1666C21.8749 28.3646 22.1605 27.6779 22.7317 27.1068C23.3029 26.5356 23.9895 26.25 24.7916 26.25C25.5937 26.25 26.2803 26.5356 26.8515 27.1068C27.4227 27.6779 27.7083 28.3646 27.7083 29.1666C27.7083 29.9687 27.4227 30.6554 26.8515 31.2265C26.2803 31.7977 25.5937 32.0833 24.7916 32.0833ZM1.45825 5.83331V2.91665H6.23429L12.4322 16.0416H22.6405L28.328 5.83331H31.6458L25.2291 17.4271C24.9617 17.9132 24.6032 18.2899 24.1536 18.5573C23.7039 18.8246 23.2117 18.9583 22.677 18.9583H11.8124L10.2083 21.875H27.7083V24.7916H10.2083C9.1145 24.7916 8.28204 24.3177 7.71086 23.3698C7.13968 22.4219 7.12145 21.4618 7.65617 20.4896L9.62492 16.9166L4.37492 5.83331H1.45825Z" fill="white"/>
</svg>
