<svg width="70" height="70" viewBox="0 0 70 70" fill="none" xmlns="http://www.w3.org/2000/svg">
<path d="M17.5 58.3333C15.0694 58.3333 13.0034 57.4826 11.302 55.7812C9.60065 54.0798 8.74996 52.0139 8.74996 49.5833H2.91663V17.5C2.91663 15.8958 3.48781 14.5225 4.63017 13.3802C5.77253 12.2378 7.14579 11.6666 8.74996 11.6666H49.5833V23.3333H58.3333L67.0833 35V49.5833H61.25C61.25 52.0139 60.3993 54.0798 58.6979 55.7812C56.9965 57.4826 54.9305 58.3333 52.5 58.3333C50.0694 58.3333 48.0034 57.4826 46.302 55.7812C44.6007 54.0798 43.75 52.0139 43.75 49.5833H26.25C26.25 52.0139 25.3993 54.0798 23.6979 55.7812C21.9965 57.4826 19.9305 58.3333 17.5 58.3333ZM17.5 52.5C18.3263 52.5 19.0191 52.2204 19.5781 51.6614C20.1371 51.1024 20.4166 50.4097 20.4166 49.5833C20.4166 48.7569 20.1371 48.0642 19.5781 47.5052C19.0191 46.9461 18.3263 46.6666 17.5 46.6666C16.6736 46.6666 15.9809 46.9461 15.4218 47.5052C14.8628 48.0642 14.5833 48.7569 14.5833 49.5833C14.5833 50.4097 14.8628 51.1024 15.4218 51.6614C15.9809 52.2204 16.6736 52.5 17.5 52.5ZM8.74996 43.75H11.0833C11.9097 42.875 12.8576 42.1701 13.927 41.6354C14.9965 41.1007 16.1875 40.8333 17.5 40.8333C18.8125 40.8333 20.0034 41.1007 21.0729 41.6354C22.1423 42.1701 23.0902 42.875 23.9166 43.75H43.75V17.5H8.74996V43.75ZM52.5 52.5C53.3263 52.5 54.0191 52.2204 54.5781 51.6614C55.1371 51.1024 55.4166 50.4097 55.4166 49.5833C55.4166 48.7569 55.1371 48.0642 54.5781 47.5052C54.0191 46.9461 53.3263 46.6666 52.5 46.6666C51.6736 46.6666 50.9809 46.9461 50.4218 47.5052C49.8628 48.0642 49.5833 48.7569 49.5833 49.5833C49.5833 50.4097 49.8628 51.1024 50.4218 51.6614C50.9809 52.2204 51.6736 52.5 52.5 52.5ZM49.5833 37.9166H61.9791L55.4166 29.1666H49.5833V37.9166Z" fill="#000102"/>
</svg>
