<svg width="35" height="35" viewBox="0 0 35 35" fill="none" xmlns="http://www.w3.org/2000/svg">
<path d="M17.5 14.5833L15.4583 12.5416L17.7552 10.2083H11.6666V7.29163H17.7552L15.4219 4.95829L17.5 2.91663L23.3333 8.74996L17.5 14.5833ZM10.2083 32.0833C9.40623 32.0833 8.7196 31.7977 8.14842 31.2265C7.57724 30.6553 7.29165 29.9687 7.29165 29.1666C7.29165 28.3645 7.57724 27.6779 8.14842 27.1067C8.7196 26.5355 9.40623 26.25 10.2083 26.25C11.0104 26.25 11.697 26.5355 12.2682 27.1067C12.8394 27.6779 13.125 28.3645 13.125 29.1666C13.125 29.9687 12.8394 30.6553 12.2682 31.2265C11.697 31.7977 11.0104 32.0833 10.2083 32.0833ZM24.7916 32.0833C23.9896 32.0833 23.3029 31.7977 22.7318 31.2265C22.1606 30.6553 21.875 29.9687 21.875 29.1666C21.875 28.3645 22.1606 27.6779 22.7318 27.1067C23.3029 26.5355 23.9896 26.25 24.7916 26.25C25.5937 26.25 26.2804 26.5355 26.8515 27.1067C27.4227 27.6779 27.7083 28.3645 27.7083 29.1666C27.7083 29.9687 27.4227 30.6553 26.8515 31.2265C26.2804 31.7977 25.5937 32.0833 24.7916 32.0833ZM1.45831 5.83329V2.91663H6.23435L12.4323 16.0416H22.6406L28.3281 5.83329H31.6458L25.2291 17.427C24.9618 17.9132 24.6033 18.2899 24.1536 18.5573C23.704 18.8246 23.2118 18.9583 22.6771 18.9583H11.8125L10.2083 21.875H27.7083V24.7916H10.2083C9.11456 24.7916 8.2821 24.3177 7.71092 23.3698C7.13974 22.4218 7.12151 21.4618 7.65623 20.4895L9.62498 16.9166L4.37498 5.83329H1.45831Z" fill="#E8EAED"/>
</svg>
