<svg width="30" height="30" viewBox="0 0 30 30" fill="none" xmlns="http://www.w3.org/2000/svg">
<path d="M8.75 28.75C8.0625 28.75 7.47396 28.5052 6.98438 28.0156C6.49479 27.526 6.25 26.9375 6.25 26.25V3.75C6.25 3.0625 6.49479 2.47396 6.98438 1.98438C7.47396 1.49479 8.0625 1.25 8.75 1.25H21.25C21.9375 1.25 22.526 1.49479 23.0156 1.98438C23.5052 2.47396 23.75 3.0625 23.75 3.75V26.25C23.75 26.9375 23.5052 27.526 23.0156 28.0156C22.526 28.5052 21.9375 28.75 21.25 28.75H8.75ZM8.75 22.5V26.25H21.25V22.5H8.75ZM15 25.625C15.3542 25.625 15.651 25.5052 15.8906 25.2656C16.1302 25.026 16.25 24.7292 16.25 24.375C16.25 24.0208 16.1302 23.724 15.8906 23.4844C15.651 23.2448 15.3542 23.125 15 23.125C14.6458 23.125 14.349 23.2448 14.1094 23.4844C13.8698 23.724 13.75 24.0208 13.75 24.375C13.75 24.7292 13.8698 25.026 14.1094 25.2656C14.349 25.5052 14.6458 25.625 15 25.625ZM8.75 20H21.25V7.5H8.75V20ZM8.75 5H21.25V3.75H8.75V5Z" fill="#E8EAED"/>
</svg>
