<svg width="38" height="38" viewBox="0 0 38 38" fill="none" xmlns="http://www.w3.org/2000/svg">
<path d="M34.8334 9.50004V28.5C34.8334 29.3709 34.5233 30.1164 33.9031 30.7365C33.283 31.3566 32.5375 31.6667 31.6667 31.6667H6.33335C5.46252 31.6667 4.71703 31.3566 4.0969 30.7365C3.47676 30.1164 3.16669 29.3709 3.16669 28.5V9.50004C3.16669 8.62921 3.47676 7.88372 4.0969 7.26358C4.71703 6.64344 5.46252 6.33337 6.33335 6.33337H31.6667C32.5375 6.33337 33.283 6.64344 33.9031 7.26358C34.5233 7.88372 34.8334 8.62921 34.8334 9.50004ZM6.33335 12.6667H31.6667V9.50004H6.33335V12.6667ZM6.33335 19V28.5H31.6667V19H6.33335Z" fill="white"/>
</svg>
