<svg width="70" height="70" viewBox="0 0 70 70" fill="none" xmlns="http://www.w3.org/2000/svg">
<path d="M40.8334 37.9166C38.4029 37.9166 36.3369 37.0659 34.6355 35.3645C32.9341 33.6632 32.0834 31.5972 32.0834 29.1666C32.0834 26.7361 32.9341 24.6701 34.6355 22.9687C36.3369 21.2673 38.4029 20.4166 40.8334 20.4166C43.264 20.4166 45.3299 21.2673 47.0313 22.9687C48.7327 24.6701 49.5834 26.7361 49.5834 29.1666C49.5834 31.5972 48.7327 33.6632 47.0313 35.3645C45.3299 37.0659 43.264 37.9166 40.8334 37.9166ZM20.4167 46.6666C18.8126 46.6666 17.4393 46.0954 16.297 44.9531C15.1546 43.8107 14.5834 42.4375 14.5834 40.8333V17.5C14.5834 15.8958 15.1546 14.5225 16.297 13.3802C17.4393 12.2378 18.8126 11.6666 20.4167 11.6666H61.2501C62.8542 11.6666 64.2275 12.2378 65.3699 13.3802C66.5122 14.5225 67.0834 15.8958 67.0834 17.5V40.8333C67.0834 42.4375 66.5122 43.8107 65.3699 44.9531C64.2275 46.0954 62.8542 46.6666 61.2501 46.6666H20.4167ZM26.2501 40.8333H55.4167C55.4167 39.2291 55.9879 37.8559 57.1303 36.7135C58.2726 35.5711 59.6459 35 61.2501 35V23.3333C59.6459 23.3333 58.2726 22.7621 57.1303 21.6198C55.9879 20.4774 55.4167 19.1041 55.4167 17.5H26.2501C26.2501 19.1041 25.6789 20.4774 24.5365 21.6198C23.3942 22.7621 22.0209 23.3333 20.4167 23.3333V35C22.0209 35 23.3942 35.5711 24.5365 36.7135C25.6789 37.8559 26.2501 39.2291 26.2501 40.8333ZM58.3334 58.3333H8.75008C7.14591 58.3333 5.77265 57.7621 4.63029 56.6198C3.48793 55.4774 2.91675 54.1041 2.91675 52.5V20.4166H8.75008V52.5H58.3334V58.3333Z" fill="#000309"/>
</svg>
