<svg width="59" height="59" viewBox="0 0 59 59" fill="none" xmlns="http://www.w3.org/2000/svg">
<circle cx="29.2917" cy="29.2917" r="29.2917" fill="#040000"/>
<path d="M43.5849 44.141L33.76 34.3161C32.9803 34.9399 32.0835 35.4338 31.0699 35.7976C30.0562 36.1615 28.9775 36.3435 27.8339 36.3435C25.0008 36.3435 22.603 35.3623 20.6406 33.3999C18.6782 31.4375 17.6971 29.0398 17.6971 26.2066C17.6971 23.3735 18.6782 20.9758 20.6406 19.0134C22.603 17.051 25.0008 16.0698 27.8339 16.0698C30.667 16.0698 33.0647 17.051 35.0271 19.0134C36.9895 20.9758 37.9707 23.3735 37.9707 26.2066C37.9707 27.3503 37.7888 28.429 37.4249 29.4426C37.061 30.4563 36.5671 31.353 35.9433 32.1328L45.7683 41.9577L43.5849 44.141ZM27.8339 33.2244C29.7833 33.2244 31.4402 32.5422 32.8048 31.1776C34.1694 29.813 34.8517 28.156 34.8517 26.2066C34.8517 24.2573 34.1694 22.6003 32.8048 21.2357C31.4402 19.8711 29.7833 19.1888 27.8339 19.1888C25.8845 19.1888 24.2275 19.8711 22.8629 21.2357C21.4984 22.6003 20.8161 24.2573 20.8161 26.2066C20.8161 28.156 21.4984 29.813 22.8629 31.1776C24.2275 32.5422 25.8845 33.2244 27.8339 33.2244ZM26.2744 30.8852V27.7662H23.1553V24.6471H26.2744V21.5281H29.3934V24.6471H32.5124V27.7662H29.3934V30.8852H26.2744Z" fill="white"/>
</svg>
